<svg width="32" height="32" viewBox="0 0 32 32" fill="none" xmlns="http://www.w3.org/2000/svg">
<path d="M7 24C5.9 24 5 23.1 5 22V10C5 8.9 5.9 8 7 8C8.1 8 9 8.9 9 10V22C9 23.1 8.1 24 7 24Z" stroke="white" stroke-width="2" stroke-miterlimit="10" stroke-linecap="round" stroke-linejoin="round"/>
<path d="M3 21C1.9 21 1 20.1 1 19V13C1 11.9 1.9 11 3 11C4.1 11 5 11.9 5 13V19C5 20.1 4.1 21 3 21Z" stroke="white" stroke-width="2" stroke-miterlimit="10" stroke-linecap="round" stroke-linejoin="round"/>
<path d="M25 8C26.1 8 27 8.9 27 10V22C27 23.1 26.1 24 25 24C23.9 24 23 23.1 23 22V10C23 8.9 23.9 8 25 8Z" stroke="white" stroke-width="2" stroke-miterlimit="10" stroke-linecap="round" stroke-linejoin="round"/>
<path d="M29 11C30.1 11 31 11.9 31 13V19C31 20.1 30.1 21 29 21C27.9 21 27 20.1 27 19V13C27 11.9 27.9 11 29 11Z" stroke="white" stroke-width="2" stroke-miterlimit="10" stroke-linecap="round" stroke-linejoin="round"/>
<path d="M9 16H23" stroke="white" stroke-width="2" stroke-miterlimit="10" stroke-linecap="round" stroke-linejoin="round"/>
</svg>
