<svg width="27" height="26" viewBox="0 0 27 26" fill="none" xmlns="http://www.w3.org/2000/svg">
<g clip-path="url(#clip0_37_226)">
<path d="M19.0005 19.2712C18.9452 19.2422 18.8254 19.179 18.6622 19.0909C18.1289 18.8073 17.6618 18.5309 17.2981 18.2871C17.7851 18.4159 18.2819 18.5339 18.6595 18.3253C19.0791 18.0897 19.1633 17.5762 19.2376 17.1231C19.2692 16.9306 19.3279 16.5725 19.4028 16.5069C19.4848 16.4439 19.8645 16.4507 20.0687 16.4545C20.5433 16.463 21.0816 16.473 21.3926 16.1157C21.7032 15.7586 21.5998 15.25 21.5085 14.8013C21.4692 14.6075 21.3958 14.2469 21.4442 14.1625C21.5015 14.0784 21.8558 13.9612 22.0461 13.8983C22.4991 13.7484 23.0126 13.5786 23.1774 13.141C23.3439 12.7084 23.0675 12.2669 22.8235 11.8774C22.7162 11.706 22.5164 11.387 22.5347 11.2852C22.5593 11.1892 22.8452 10.9663 22.9989 10.8466C23.3712 10.5563 23.7933 10.2273 23.7933 9.75541C23.7933 9.28355 23.3712 8.95455 22.9989 8.66427C22.8453 8.54454 22.5594 8.32164 22.5345 8.22463C22.5165 8.12459 22.7154 7.80765 22.8223 7.63742C23.0667 7.24801 23.3437 6.80665 23.1784 6.37258C23.0128 5.93278 22.5012 5.76444 22.0498 5.61589C21.8581 5.55284 21.5014 5.43544 21.4457 5.35092C21.3969 5.26142 21.4695 4.9043 21.5085 4.71244C21.5999 4.26285 21.7035 3.75318 21.3925 3.4005C21.0816 3.04327 20.5436 3.05328 20.0687 3.06171C19.8645 3.06545 19.4847 3.07231 19.4052 3.01137C19.3275 2.94296 19.2691 2.58244 19.2378 2.38874C19.1644 1.9359 19.0813 1.42267 18.6637 1.19014C18.2481 0.958641 17.7483 1.14304 17.3074 1.3057C17.1148 1.3767 16.757 1.50838 16.6572 1.47496L16.6515 1.47296C16.556 1.43429 16.376 1.1199 16.2793 0.951016C16.0492 0.549068 15.7885 0.0935312 15.3058 0.0112274C14.8364 -0.0661555 14.4345 0.271279 14.0803 0.568644C13.9231 0.700644 13.6303 0.946419 13.5224 0.946419C13.4141 0.946419 13.1209 0.69967 12.9634 0.567184C12.6107 0.270468 12.2108 -0.0658311 11.7418 0.0117681C11.2627 0.0934771 11.0002 0.548636 10.7686 0.950205C10.671 1.11941 10.4893 1.43446 10.3914 1.47366C10.2922 1.50735 9.93565 1.37573 9.74404 1.30516C9.303 1.14261 8.80315 0.95837 8.38866 1.18917C7.9666 1.42137 7.88343 1.93498 7.81003 2.38814C7.77864 2.5819 7.72018 2.94258 7.6428 3.00888C7.55919 3.06934 7.18406 3.06307 6.98252 3.05977C6.5048 3.05171 5.96357 3.04279 5.6519 3.40104C5.34552 3.7541 5.44738 4.2595 5.53729 4.70541C5.5766 4.90041 5.64983 5.26353 5.59934 5.35054C5.5438 5.43565 5.18716 5.55327 4.99561 5.61643C4.54636 5.76454 4.03714 5.93251 3.86783 6.36895L3.86553 6.37501C3.70576 6.80773 3.98031 7.24682 4.22251 7.63423C4.32954 7.80538 4.52879 8.12399 4.51009 8.22566C4.48543 8.3217 4.19954 8.5446 4.04596 8.66432C3.67359 8.9546 3.25152 9.2836 3.25152 9.75547C3.25152 10.2273 3.67359 10.5563 4.04596 10.8466C4.19954 10.9663 4.48543 11.1892 4.51025 11.2863C4.5289 11.3876 4.32881 11.7084 4.22128 11.8807C3.97952 12.2682 3.70548 12.7074 3.86777 13.142C4.03714 13.5785 4.54636 13.7464 4.99567 13.8946C5.18721 13.9577 5.5438 14.0753 5.59816 14.1584C5.64977 14.2473 5.57671 14.6104 5.5374 14.8056C5.44755 15.2519 5.34574 15.7578 5.65011 16.1133L5.65404 16.1178C5.96396 16.4692 6.49919 16.4605 6.97163 16.4527C7.17693 16.4493 7.55975 16.4431 7.6419 16.5068C7.72024 16.5733 7.7787 16.9334 7.81009 17.127C7.88337 17.5784 7.96637 18.0901 8.39001 18.328C8.53843 18.4089 8.70314 18.4399 8.87722 18.4399C9.13346 18.4399 9.41003 18.3727 9.68452 18.2986C9.32304 18.5399 8.86167 18.8123 8.33537 19.0922C8.17314 19.1799 8.05341 19.243 7.99861 19.2716C2.52728 20.9821 2.41148 24.1035 2.40924 24.2359L2.40918 26H24.5908V24.2402C24.59 24.107 24.5088 20.966 19.0005 19.2712ZM9.56749 17.4874C9.34242 17.5491 8.92568 17.6632 8.8095 17.6238C8.73138 17.5506 8.6736 17.1944 8.64226 17.0017C8.57381 16.5797 8.503 16.1433 8.18291 15.8851C7.86282 15.6269 7.40234 15.6343 6.95731 15.6417C6.75908 15.6448 6.39474 15.6509 6.29933 15.5937C6.25698 15.4933 6.32651 15.1478 6.36436 14.9599C6.44898 14.5395 6.53647 14.1048 6.32842 13.7541C6.12058 13.4081 5.68745 13.2653 5.26853 13.1272C5.07799 13.0643 4.72763 12.9488 4.66008 12.8617C4.65862 12.7546 4.84298 12.4591 4.94327 12.2983C5.1743 11.928 5.41319 11.5451 5.33996 11.1467C5.27044 10.7576 4.91733 10.4823 4.5759 10.2161C4.41496 10.0907 4.11666 9.8581 4.09419 9.75541C4.11666 9.65278 4.41496 9.4202 4.5759 9.29469C4.91738 9.02852 5.27049 8.75322 5.33962 8.36604C5.41319 7.96604 5.17469 7.58464 4.94411 7.21579C4.84292 7.05394 4.65677 6.75619 4.66002 6.64923C4.72741 6.56217 5.07788 6.44661 5.26842 6.38377C5.68734 6.24561 6.12053 6.10279 6.32943 5.75492C6.53653 5.40591 6.44887 4.97119 6.36413 4.5507C6.32645 4.36381 6.25693 4.01908 6.29938 3.92136C6.39182 3.86112 6.76553 3.86745 6.96786 3.87064C7.40975 3.8781 7.86664 3.88562 8.18291 3.63114C8.50294 3.37292 8.57375 2.93577 8.64221 2.513C8.67343 2.32011 8.73144 1.96208 8.80686 1.89362C8.91069 1.86615 9.25622 1.99382 9.44288 2.06255C9.85725 2.21531 10.2859 2.37322 10.676 2.23695C11.0671 2.103 11.2897 1.71711 11.5049 1.34388C11.6034 1.17321 11.7848 0.858654 11.8857 0.812148C11.994 0.828696 12.263 1.055 12.4091 1.17792C12.7477 1.4629 13.0979 1.75751 13.5224 1.75751C13.946 1.75751 14.2957 1.46387 14.6339 1.17992C14.7821 1.05549 15.0553 0.826154 15.1641 0.811986C15.2643 0.858113 15.4441 1.17213 15.5416 1.34253C15.755 1.71538 15.9757 2.10078 16.3658 2.23592C16.7602 2.37603 17.1915 2.21694 17.6086 2.06314C17.7937 1.9949 18.1344 1.86907 18.2416 1.89318C18.3176 1.971 18.3746 2.32293 18.4055 2.51371C18.4738 2.93545 18.5445 3.37146 18.8619 3.63114C19.1817 3.88913 19.6409 3.88086 20.0847 3.87264C20.2873 3.86912 20.6623 3.8622 20.7467 3.92196C20.7915 4.0174 20.7203 4.36727 20.6819 4.55643C20.5966 4.97617 20.5084 5.41013 20.7164 5.75654C20.9241 6.10252 21.3579 6.24528 21.7775 6.38334C21.9704 6.44682 22.3283 6.5646 22.3858 6.64831C22.394 6.75149 22.2041 7.0541 22.1014 7.21768C21.8705 7.58567 21.6317 7.9662 21.7048 8.36393C21.7743 8.75306 22.1274 9.02836 22.4689 9.29452C22.6298 9.41998 22.9282 9.65256 22.9506 9.75525C22.9282 9.85789 22.6298 10.0905 22.4689 10.216C22.1274 10.4821 21.7743 10.7574 21.7051 11.1446C21.6315 11.5446 21.8708 11.9266 22.1022 12.2961C22.2036 12.458 22.3908 12.757 22.3858 12.8614C22.3228 12.949 21.9657 13.0671 21.7724 13.131C21.3556 13.2688 20.9245 13.4114 20.7153 13.7558C20.5085 14.1042 20.5967 14.5377 20.6819 14.957C20.7205 15.1471 20.7919 15.4983 20.7462 15.594C20.6562 15.6538 20.2852 15.6471 20.0845 15.6433C19.641 15.6355 19.1816 15.6269 18.8597 15.8866C18.5453 16.1437 18.4742 16.5772 18.4054 16.9963C18.3734 17.1916 18.3141 17.5536 18.2372 17.6226C18.1141 17.662 17.6844 17.5482 17.4523 17.4866C17.2012 17.4198 16.9576 17.3554 16.7288 17.3289V16.5447C17.7295 15.9937 18.5628 15.1708 19.1485 14.1507C19.7697 13.0686 20.0981 11.79 20.0981 10.4531V7.07329H19.677C16.1793 7.07329 13.4889 5.27321 13.4625 5.25526L12.7979 4.80183V5.5862C12.7979 5.91352 12.1152 6.38885 10.1994 6.74111C8.77103 7.00375 7.3171 7.07308 7.30261 7.07373L6.90149 7.09222V10.453C6.90149 11.7899 7.22989 13.0686 7.8512 14.1507C8.43685 15.1707 9.27009 15.9936 10.2708 16.5446V17.3306C10.0421 17.358 9.80273 17.4231 9.56749 17.4874ZM13.5 16.5366C12.55 16.5366 11.6707 16.3373 10.8867 15.9444L10.8854 15.9437C9.93149 15.4696 9.13728 14.7139 8.58852 13.7582C8.03606 12.796 7.74399 11.6531 7.74399 10.4531V7.8594C8.28916 7.82068 9.31293 7.72951 10.3498 7.53927C12.0223 7.23249 13.0457 6.79286 13.4462 6.20478C14.3629 6.72607 16.5296 7.77607 19.256 7.8766V10.4531C19.256 11.6531 18.964 12.796 18.4115 13.7582C17.8627 14.7139 17.0685 15.4697 16.1133 15.9444C15.3293 16.3374 14.45 16.5366 13.5 16.5366ZM15.8866 16.9313V17.8675C15.5985 18.1575 14.6857 18.97 13.5 18.97C12.322 18.97 11.4028 18.1559 11.1134 17.8667V16.9313C11.8536 17.2075 12.6534 17.3478 13.5 17.3478C14.3468 17.3478 15.1468 17.2074 15.8866 16.9313ZM10.6775 18.5932C11.1629 19.0334 12.1815 19.7812 13.4999 19.7812C14.8185 19.7812 15.837 19.0334 16.3224 18.5932C16.7066 18.9025 17.2266 19.2246 17.682 19.4851C17.3407 19.7109 16.873 20.0006 16.3449 20.2725C15.2519 20.8355 14.2681 21.1331 13.5 21.1331C12.7318 21.1331 11.748 20.8355 10.655 20.2725C10.1247 19.9994 9.6615 19.7133 9.31732 19.4854C9.77336 19.2245 10.2934 18.9025 10.6775 18.5932ZM3.25152 25.1888V24.2474C3.25466 24.1655 3.40724 21.5474 8.29427 20.032C8.29427 20.032 8.42022 19.9743 8.50822 19.9277C8.87245 20.1832 9.50168 20.5984 10.2577 20.9878C11.3069 21.5283 12.2533 21.8409 13.0788 21.9221V24.2425H13.9211V21.9221C14.7467 21.8409 15.693 21.5282 16.7423 20.9878C17.4984 20.5984 18.1276 20.1832 18.4918 19.9277C18.5828 19.9759 18.7076 20.0326 18.7076 20.0326C20.1371 20.4687 22.0613 21.2903 23.11 22.7276C23.7119 23.5524 23.747 24.2124 23.7484 24.2469V25.1888H3.25152Z" fill="white"/>
<path d="M13.9211 9.91229H13.0788V12.0753C13.0788 12.2994 13.2674 12.4809 13.5 12.4809H14.6231V11.6698H13.9211V9.91229Z" fill="white"/>
</g>
<defs>
<clipPath id="clip0_37_226">
<rect width="27" height="26" fill="white"/>
</clipPath>
</defs>
</svg>
