<svg width="24" height="24" viewBox="0 0 24 24" fill="none" xmlns="http://www.w3.org/2000/svg">
<path d="M12 3.88559L4.08 20.82H19.92L12 3.88559ZM12 0.23999C12.5064 0.23999 13.0128 0.58079 13.3992 1.26479L23.4384 21.2736C24.2088 22.6416 23.5536 23.76 21.984 23.76H2.016C0.446396 23.76 -0.206404 22.6416 0.561596 21.2736L10.6032 1.26479C10.9872 0.58079 11.4936 0.23999 12 0.23999ZM10.5288 17.88C10.5288 17.0688 11.1864 16.4112 11.9976 16.4112C12.8088 16.4112 13.4688 17.0688 13.4688 17.88C13.4688 18.6912 12.8112 19.3512 11.9976 19.3512C11.1864 19.3488 10.5288 18.6912 10.5288 17.88ZM12 9.05999C12.8112 9.05999 13.4712 9.71759 13.4712 10.5288L13.0128 14.9376H10.992L10.5336 10.5288C10.5288 9.71759 11.1864 9.05999 12 9.05999Z" fill="#FF5722"/>
</svg>
